<svg width="477" height="513" viewBox="0 0 477 513" fill="none" xmlns="http://www.w3.org/2000/svg">
<rect x="75.1841" y="3.36652" width="326.542" height="506.94" rx="37.5" fill="url(#paint0_linear_1257_153)" fill-opacity="0.43" stroke="url(#paint1_linear_1257_153)" stroke-width="5"/>
<rect x="95.6243" y="37.2148" width="285.662" height="62.602" rx="19" fill="url(#paint2_linear_1257_153)"/>
<rect x="95.6243" y="37.2148" width="285.662" height="62.602" rx="19" fill="url(#paint3_linear_1257_153)" fill-opacity="0.2"/>
<rect x="95.6243" y="37.2148" width="285.662" height="62.602" rx="19" stroke="url(#paint4_angular_1257_153)" stroke-width="2"/>
<rect x="55.4004" y="84.7521" width="366.109" height="80.8856" rx="19" fill="url(#paint5_linear_1257_153)"/>
<rect x="55.4004" y="84.7521" width="366.109" height="80.8856" rx="19" fill="url(#paint6_linear_1257_153)" fill-opacity="0.2"/>
<rect x="55.4004" y="84.7521" width="366.109" height="80.8856" rx="19" stroke="url(#paint7_angular_1257_153)" stroke-width="2"/>
<rect x="1.76855" y="134.727" width="473.373" height="88.199" rx="19" fill="url(#paint8_linear_1257_153)"/>
<rect x="1.76855" y="134.727" width="473.373" height="88.199" rx="19" fill="url(#paint9_linear_1257_153)" fill-opacity="0.2"/>
<rect x="1.76855" y="134.727" width="473.373" height="88.199" rx="19" stroke="url(#paint10_angular_1257_153)" stroke-width="2"/>
<path d="M410.592 157.135V151.498H411.295V153.936H414.389V151.498H415.092V157.135H414.389V154.569H411.295V157.135H410.592ZM417.151 157.213C416.342 157.213 415.799 156.725 415.799 155.987V155.979C415.799 155.287 416.338 154.854 417.272 154.799L418.436 154.733V154.393C418.436 153.897 418.112 153.596 417.545 153.596C417.022 153.596 416.694 153.846 416.616 154.209L416.608 154.245H415.952L415.956 154.202C416.014 153.534 416.596 152.995 417.553 152.995C418.514 152.995 419.116 153.514 419.116 154.327V157.135H418.436V156.475H418.42C418.182 156.92 417.694 157.213 417.151 157.213ZM416.495 155.987C416.495 156.377 416.815 156.623 417.303 156.623C417.944 156.623 418.436 156.182 418.436 155.592V155.26L417.35 155.327C416.807 155.358 416.495 155.6 416.495 155.979V155.987ZM421.663 157.213C420.51 157.213 419.78 156.393 419.78 155.1V155.096C419.78 153.815 420.526 152.995 421.655 152.995C422.666 152.995 423.264 153.666 423.35 154.362L423.354 154.393H422.69L422.682 154.362C422.581 153.955 422.252 153.596 421.655 153.596C420.948 153.596 420.475 154.182 420.475 155.104V155.108C420.475 156.053 420.959 156.612 421.663 156.612C422.217 156.612 422.573 156.299 422.686 155.846L422.694 155.815H423.362L423.358 155.842C423.249 156.616 422.581 157.213 421.663 157.213ZM425.659 157.213C424.491 157.213 423.788 156.397 423.788 155.12V155.116C423.788 153.858 424.506 152.995 425.616 152.995C426.725 152.995 427.401 153.819 427.401 155.037V155.287H424.475C424.491 156.123 424.952 156.612 425.674 156.612C426.19 156.612 426.553 156.354 426.67 156.006L426.682 155.971H427.35L427.342 156.01C427.209 156.682 426.545 157.213 425.659 157.213ZM425.612 153.596C425.022 153.596 424.561 153.998 424.487 154.756H426.709C426.643 153.967 426.206 153.596 425.612 153.596ZM429.745 157.135V156.651L431.729 154.58C432.491 153.787 432.666 153.483 432.666 153.014V153.006C432.663 152.432 432.229 152.018 431.616 152.018C430.913 152.018 430.389 152.502 430.389 153.108V153.127H429.709V153.104C429.709 152.127 430.553 151.405 431.604 151.405C432.624 151.405 433.37 152.088 433.37 152.971V152.979C433.37 153.596 433.084 154.061 432.049 155.12L430.709 156.495V156.51H433.463V157.135H429.745ZM435.901 157.135V153.073H436.581V153.666H436.596C436.78 153.264 437.186 152.995 437.709 152.995C438.264 152.995 438.674 153.28 438.85 153.776H438.866C439.092 153.287 439.569 152.995 440.139 152.995C440.944 152.995 441.463 153.522 441.463 154.33V157.135H440.784V154.487C440.784 153.928 440.475 153.596 439.94 153.596C439.401 153.596 439.022 153.998 439.022 154.553V157.135H438.342V154.412C438.342 153.92 438.014 153.596 437.51 153.596C436.971 153.596 436.581 154.022 436.581 154.588V157.135H435.901ZM442.713 152.385C442.479 152.385 442.288 152.194 442.288 151.959C442.288 151.721 442.479 151.534 442.713 151.534C442.952 151.534 443.139 151.721 443.139 151.959C443.139 152.194 442.952 152.385 442.713 152.385ZM442.374 157.135V153.073H443.053V157.135H442.374ZM443.979 157.135V153.073H444.659V153.651H444.674C444.893 153.272 445.307 152.995 445.924 152.995C446.815 152.995 447.331 153.573 447.331 154.498V157.135H446.651V154.62C446.651 153.959 446.342 153.596 445.717 153.596C445.077 153.596 444.659 154.053 444.659 154.745V157.135H443.979ZM449.639 157.213C448.682 157.213 448.104 156.725 448.022 155.998L448.018 155.963H448.698L448.706 156.002C448.788 156.409 449.088 156.647 449.643 156.647C450.194 156.647 450.522 156.416 450.522 156.049V156.045C450.522 155.752 450.37 155.588 449.909 155.475L449.264 155.319C448.499 155.135 448.127 154.78 448.127 154.194V154.19C448.127 153.491 448.741 152.995 449.62 152.995C450.51 152.995 451.077 153.514 451.127 154.194L451.131 154.245H450.483L450.479 154.217C450.424 153.823 450.124 153.561 449.62 153.561C449.127 153.561 448.823 153.799 448.823 154.159V154.162C448.823 154.44 449.006 154.631 449.456 154.741L450.1 154.897C450.92 155.096 451.217 155.42 451.217 155.998V156.002C451.217 156.713 450.545 157.213 449.639 157.213ZM452.342 157.19C452.092 157.19 451.897 156.995 451.897 156.745C451.897 156.495 452.092 156.299 452.342 156.299C452.592 156.299 452.788 156.495 452.788 156.745C452.788 156.995 452.592 157.19 452.342 157.19ZM454.061 157.19C453.811 157.19 453.616 156.995 453.616 156.745C453.616 156.495 453.811 156.299 454.061 156.299C454.311 156.299 454.506 156.495 454.506 156.745C454.506 156.995 454.311 157.19 454.061 157.19ZM455.78 157.19C455.53 157.19 455.334 156.995 455.334 156.745C455.334 156.495 455.53 156.299 455.78 156.299C456.03 156.299 456.225 156.495 456.225 156.745C456.225 156.995 456.03 157.19 455.78 157.19Z" fill="white" fill-opacity="0.5"/>
<path d="M114.088 190.474C114.651 190.474 115.09 190.913 115.09 191.476C115.09 192.047 114.651 192.478 114.088 192.478C113.517 192.478 113.086 192.047 113.086 191.476C113.086 190.913 113.517 190.474 114.088 190.474ZM114.774 194.772L114.879 203.244H113.297L113.403 194.772H114.774ZM117.718 199.702V187.02H119.3V192.504H126.261V187.02H127.843V199.702H126.261V193.928H119.3V199.702H117.718ZM133.855 199.878C131.315 199.878 129.618 198.041 129.618 195.132V195.114C129.618 192.205 131.323 190.386 133.846 190.386C136.368 190.386 138.082 192.196 138.082 195.114V195.132C138.082 198.05 136.377 199.878 133.855 199.878ZM133.864 198.525C135.472 198.525 136.518 197.277 136.518 195.132V195.114C136.518 192.97 135.463 191.739 133.846 191.739C132.255 191.739 131.183 192.979 131.183 195.114V195.132C131.183 197.285 132.246 198.525 133.864 198.525ZM139.708 199.702V187.02H141.238V199.702H139.708ZM145.975 199.878C144.156 199.878 142.934 198.779 142.934 197.118V197.101C142.934 195.545 144.147 194.57 146.247 194.446L148.866 194.297V193.532C148.866 192.416 148.137 191.739 146.863 191.739C145.685 191.739 144.947 192.302 144.771 193.119L144.753 193.198H143.277L143.285 193.102C143.417 191.599 144.727 190.386 146.88 190.386C149.042 190.386 150.396 191.555 150.396 193.383V199.702H148.866V198.217H148.831C148.295 199.219 147.197 199.878 145.975 199.878ZM144.498 197.118C144.498 197.997 145.219 198.551 146.318 198.551C147.759 198.551 148.866 197.558 148.866 196.231V195.484L146.423 195.633C145.201 195.703 144.498 196.248 144.498 197.101V197.118ZM153.059 195.492L152.953 187.02H154.535L154.43 195.492H153.059ZM153.744 199.79C153.182 199.79 152.742 199.351 152.742 198.788C152.742 198.217 153.182 197.786 153.744 197.786C154.316 197.786 154.746 198.217 154.746 198.788C154.746 199.351 154.316 199.79 153.744 199.79ZM164.625 190.474C165.188 190.474 165.627 190.913 165.627 191.476C165.627 192.047 165.188 192.478 164.625 192.478C164.054 192.478 163.623 192.047 163.623 191.476C163.623 190.913 164.054 190.474 164.625 190.474ZM165.399 194.482V195.29C165.399 196.45 164.845 197.241 163.641 197.962C162.621 198.586 162.226 199.14 162.226 200.071V200.08C162.226 201.179 163.078 201.97 164.379 201.97C165.706 201.97 166.524 201.188 166.638 200.019L166.647 199.931H168.15L168.141 200.045C168 201.838 166.787 203.341 164.318 203.341C162.112 203.341 160.591 201.979 160.591 200.159V200.151C160.591 198.779 161.303 197.804 162.428 197.127C163.544 196.468 163.861 195.976 163.861 195.053V194.482H165.399ZM174.557 199.913C171.032 199.913 168.765 197.347 168.765 193.357V193.348C168.765 189.358 171.024 186.809 174.557 186.809C177.194 186.809 179.241 188.408 179.725 190.808L179.742 190.896H178.143L178.081 190.702C177.589 189.164 176.341 188.268 174.557 188.268C172.026 188.268 170.391 190.263 170.391 193.348V193.357C170.391 196.442 172.034 198.454 174.557 198.454C176.332 198.454 177.563 197.575 178.116 195.905L178.143 195.826H179.742L179.725 195.914C179.241 198.34 177.211 199.913 174.557 199.913ZM185.587 189.516H184.409L185.912 186.879H187.512L185.587 189.516ZM185.165 199.878C182.625 199.878 180.929 198.041 180.929 195.132V195.114C180.929 192.205 182.634 190.386 185.156 190.386C187.679 190.386 189.393 192.196 189.393 195.114V195.132C189.393 198.05 187.688 199.878 185.165 199.878ZM185.174 198.525C186.782 198.525 187.828 197.277 187.828 195.132V195.114C187.828 192.97 186.774 191.739 185.156 191.739C183.566 191.739 182.493 192.979 182.493 195.114V195.132C182.493 197.285 183.557 198.525 185.174 198.525ZM190.94 199.702V190.562H192.469V191.898H192.504C192.917 190.992 193.831 190.386 195.009 190.386C196.257 190.386 197.18 191.028 197.575 192.144H197.611C198.12 191.045 199.193 190.386 200.476 190.386C202.286 190.386 203.455 191.572 203.455 193.392V199.702H201.926V193.743C201.926 192.486 201.232 191.739 200.028 191.739C198.815 191.739 197.962 192.645 197.962 193.893V199.702H196.433V193.576C196.433 192.469 195.695 191.739 194.561 191.739C193.348 191.739 192.469 192.697 192.469 193.972V199.702H190.94ZM209.195 199.878C206.655 199.878 204.958 198.041 204.958 195.132V195.114C204.958 192.205 206.663 190.386 209.186 190.386C211.708 190.386 213.422 192.196 213.422 195.114V195.132C213.422 198.05 211.717 199.878 209.195 199.878ZM209.203 198.525C210.812 198.525 211.858 197.277 211.858 195.132V195.114C211.858 192.97 210.803 191.739 209.186 191.739C207.595 191.739 206.523 192.979 206.523 195.114V195.132C206.523 197.285 207.586 198.525 209.203 198.525ZM218.66 202.778V190.562H220.19V192.109H220.225C220.796 191.045 221.816 190.386 223.125 190.386C225.463 190.386 227.01 192.249 227.01 195.132V195.141C227.01 198.024 225.446 199.878 223.152 199.878C221.86 199.878 220.796 199.228 220.225 198.173H220.19V202.778H218.66ZM222.826 198.525C224.444 198.525 225.446 197.224 225.446 195.141V195.132C225.446 193.031 224.444 191.739 222.826 191.739C221.28 191.739 220.181 193.084 220.181 195.132V195.141C220.181 197.18 221.288 198.525 222.826 198.525ZM231.677 199.878C229.673 199.878 228.513 198.577 228.513 196.494V190.562H230.042V196.222C230.042 197.707 230.737 198.525 232.143 198.525C233.584 198.525 234.525 197.496 234.525 195.941V190.562H236.054V199.702H234.525V198.402H234.49C233.997 199.254 233.066 199.878 231.677 199.878ZM241.811 199.878C239.183 199.878 237.601 198.041 237.601 195.167V195.158C237.601 192.328 239.218 190.386 241.714 190.386C244.21 190.386 245.731 192.24 245.731 194.983V195.545H239.148C239.183 197.426 240.22 198.525 241.846 198.525C243.006 198.525 243.823 197.945 244.087 197.162L244.114 197.083H245.616L245.599 197.171C245.3 198.683 243.806 199.878 241.811 199.878ZM241.705 191.739C240.378 191.739 239.341 192.645 239.174 194.35H244.175C244.026 192.574 243.041 191.739 241.705 191.739ZM250.714 199.878C248.376 199.878 246.829 198.015 246.829 195.132V195.123C246.829 192.24 248.394 190.386 250.688 190.386C251.98 190.386 253.043 191.036 253.615 192.091H253.65V187.02H255.179V199.702H253.65V198.155H253.615C253.043 199.219 252.024 199.878 250.714 199.878ZM251.013 198.525C252.56 198.525 253.658 197.18 253.658 195.132V195.123C253.658 193.084 252.551 191.739 251.013 191.739C249.396 191.739 248.394 193.04 248.394 195.123V195.132C248.394 197.233 249.396 198.525 251.013 198.525ZM261.032 199.878C258.492 199.878 256.796 198.041 256.796 195.132V195.114C256.796 192.205 258.501 190.386 261.024 190.386C263.546 190.386 265.26 192.196 265.26 195.114V195.132C265.26 198.05 263.555 199.878 261.032 199.878ZM261.041 198.525C262.65 198.525 263.696 197.277 263.696 195.132V195.114C263.696 192.97 262.641 191.739 261.024 191.739C259.433 191.739 258.361 192.979 258.361 195.114V195.132C258.361 197.285 259.424 198.525 261.041 198.525ZM273.17 199.878C271.351 199.878 270.129 198.779 270.129 197.118V197.101C270.129 195.545 271.342 194.57 273.443 194.446L276.062 194.297V193.532C276.062 192.416 275.332 191.739 274.058 191.739C272.88 191.739 272.142 192.302 271.966 193.119L271.948 193.198H270.472L270.481 193.102C270.613 191.599 271.922 190.386 274.075 190.386C276.238 190.386 277.591 191.555 277.591 193.383V199.702H276.062V198.217H276.027C275.49 199.219 274.392 199.878 273.17 199.878ZM271.694 197.118C271.694 197.997 272.414 198.551 273.513 198.551C274.954 198.551 276.062 197.558 276.062 196.231V195.484L273.618 195.633C272.397 195.703 271.694 196.248 271.694 197.101V197.118ZM280.412 202.778C280.114 202.778 279.788 202.743 279.595 202.708V201.46C279.727 201.486 279.903 201.513 280.087 201.513C281.054 201.513 281.59 201.267 281.959 200.23L282.144 199.711L278.751 190.562H280.386L282.908 198.173H282.944L285.475 190.562H287.083L283.515 200.274C282.865 202.023 282.065 202.778 280.412 202.778ZM291.407 199.878C289.404 199.878 288.243 198.577 288.243 196.494V190.562H289.773V196.222C289.773 197.707 290.467 198.525 291.873 198.525C293.315 198.525 294.255 197.496 294.255 195.941V190.562H295.784V199.702H294.255V198.402H294.22C293.728 199.254 292.796 199.878 291.407 199.878ZM301.216 199.878C298.878 199.878 297.331 198.015 297.331 195.132V195.123C297.331 192.24 298.896 190.386 301.19 190.386C302.482 190.386 303.545 191.036 304.116 192.091H304.152V187.02H305.681V199.702H304.152V198.155H304.116C303.545 199.219 302.526 199.878 301.216 199.878ZM301.515 198.525C303.062 198.525 304.16 197.18 304.16 195.132V195.123C304.16 193.084 303.053 191.739 301.515 191.739C299.898 191.739 298.896 193.04 298.896 195.123V195.132C298.896 197.233 299.898 198.525 301.515 198.525ZM310.418 199.878C308.599 199.878 307.377 198.779 307.377 197.118V197.101C307.377 195.545 308.59 194.57 310.691 194.446L313.31 194.297V193.532C313.31 192.416 312.58 191.739 311.306 191.739C310.128 191.739 309.39 192.302 309.214 193.119L309.197 193.198H307.72L307.729 193.102C307.861 191.599 309.17 190.386 311.323 190.386C313.486 190.386 314.839 191.555 314.839 193.383V199.702H313.31V198.217H313.275C312.739 199.219 311.64 199.878 310.418 199.878ZM308.942 197.118C308.942 197.997 309.662 198.551 310.761 198.551C312.202 198.551 313.31 197.558 313.31 196.231V195.484L310.866 195.633C309.645 195.703 308.942 196.248 308.942 197.101V197.118ZM316.781 199.702V190.562H318.311V192.109H318.346C318.654 191.054 319.445 190.386 320.473 190.386C320.737 190.386 320.965 190.43 321.088 190.447V191.933C320.965 191.889 320.64 191.845 320.271 191.845C319.084 191.845 318.311 192.671 318.311 194.06V199.702H316.781ZM325.746 199.878C324.068 199.878 323.241 199.122 323.241 197.373V191.827H321.906V190.562H323.241V188.092H324.823V190.562H326.564V191.827H324.823V197.364C324.823 198.34 325.254 198.612 326.072 198.612C326.256 198.612 326.432 198.586 326.564 198.577V199.817C326.37 199.843 326.045 199.878 325.746 199.878ZM331.705 199.878C329.077 199.878 327.495 198.041 327.495 195.167V195.158C327.495 192.328 329.113 190.386 331.609 190.386C334.105 190.386 335.625 192.24 335.625 194.983V195.545H329.042C329.077 197.426 330.115 198.525 331.74 198.525C332.901 198.525 333.718 197.945 333.982 197.162L334.008 197.083H335.511L335.493 197.171C335.195 198.683 333.7 199.878 331.705 199.878ZM331.6 191.739C330.273 191.739 329.236 192.645 329.069 194.35H334.07C333.92 192.574 332.936 191.739 331.6 191.739ZM340.943 199.702V187.02H342.472V192.021H342.507C342.999 190.992 343.992 190.386 345.355 190.386C347.297 190.386 348.624 191.889 348.624 194.104V199.702H347.095V194.367C347.095 192.715 346.251 191.739 344.827 191.739C343.412 191.739 342.472 192.812 342.472 194.367V199.702H340.943ZM354.355 199.878C351.815 199.878 350.118 198.041 350.118 195.132V195.114C350.118 192.205 351.823 190.386 354.346 190.386C356.868 190.386 358.582 192.196 358.582 195.114V195.132C358.582 198.05 356.877 199.878 354.355 199.878ZM354.364 198.525C355.972 198.525 357.018 197.277 357.018 195.132V195.114C357.018 192.97 355.963 191.739 354.346 191.739C352.755 191.739 351.683 192.979 351.683 195.114V195.132C351.683 197.285 352.746 198.525 354.364 198.525ZM360.656 202.778C360.358 202.778 360.032 202.743 359.839 202.708V201.46C359.971 201.486 360.147 201.513 360.331 201.513C361.298 201.513 361.834 201.267 362.203 200.23L362.388 199.711L358.995 190.562H360.63L363.153 198.173H363.188L365.719 190.562H367.327L363.759 200.274C363.109 202.023 362.309 202.778 360.656 202.778ZM370.781 195.782V194.974C370.781 193.814 371.335 193.023 372.539 192.302C373.559 191.678 373.954 191.124 373.954 190.193V190.184C373.954 189.085 373.102 188.294 371.801 188.294C370.474 188.294 369.656 189.076 369.542 190.245L369.533 190.333H368.031L368.039 190.219C368.18 188.426 369.393 186.923 371.863 186.923C374.069 186.923 375.589 188.285 375.589 190.105V190.113C375.589 191.485 374.877 192.46 373.752 193.137C372.636 193.796 372.32 194.288 372.32 195.211V195.782H370.781ZM371.555 199.79C370.992 199.79 370.553 199.351 370.553 198.788C370.553 198.217 370.992 197.786 371.555 197.786C372.126 197.786 372.557 198.217 372.557 198.788C372.557 199.351 372.126 199.79 371.555 199.79Z" fill="white"/>
<path d="M117.642 171.52C114.345 171.52 112.275 169.316 112.275 165.684V165.676C112.275 162.043 114.353 159.855 117.642 159.855C120.376 159.855 122.337 161.582 122.556 163.973L122.564 164.043H120.267L120.236 163.91C119.97 162.668 119.048 161.855 117.642 161.855C115.837 161.855 114.681 163.309 114.681 165.668V165.676C114.681 168.051 115.837 169.52 117.642 169.52C119.001 169.52 119.954 168.738 120.259 167.402L120.275 167.324H122.572L122.564 167.41C122.345 169.809 120.368 171.52 117.642 171.52ZM126.282 171.457C124.603 171.457 123.47 170.402 123.47 168.926V168.91C123.47 167.387 124.65 166.496 126.728 166.363L128.798 166.238V165.723C128.798 164.98 128.314 164.52 127.423 164.52C126.572 164.52 126.056 164.918 125.947 165.457L125.931 165.527H123.845L123.853 165.434C123.978 163.887 125.306 162.777 127.517 162.777C129.681 162.777 131.079 163.895 131.079 165.582V171.324H128.798V170.074H128.751C128.275 170.934 127.384 171.457 126.282 171.457ZM125.728 168.809C125.728 169.426 126.236 169.793 127.025 169.793C128.048 169.793 128.798 169.137 128.798 168.262V167.66L127.072 167.77C126.189 167.824 125.728 168.199 125.728 168.793V168.809ZM132.611 171.324V160.051H134.892V171.324H132.611ZM136.486 171.324V160.051H138.767V171.324H136.486ZM145.97 171.457C144.29 171.457 143.157 170.402 143.157 168.926V168.91C143.157 167.387 144.337 166.496 146.415 166.363L148.486 166.238V165.723C148.486 164.98 148.001 164.52 147.111 164.52C146.259 164.52 145.743 164.918 145.634 165.457L145.618 165.527H143.532L143.54 165.434C143.665 163.887 144.993 162.777 147.204 162.777C149.368 162.777 150.767 163.895 150.767 165.582V171.324H148.486V170.074H148.439C147.962 170.934 147.072 171.457 145.97 171.457ZM145.415 168.809C145.415 169.426 145.923 169.793 146.712 169.793C147.736 169.793 148.486 169.137 148.486 168.262V167.66L146.759 167.77C145.876 167.824 145.415 168.199 145.415 168.793V168.809ZM158.665 171.324L154.892 160.051H157.501L160.079 168.91H160.126L162.697 160.051H165.314L161.54 171.324H158.665ZM168.993 171.496C166.431 171.496 164.876 169.832 164.876 167.152V167.145C164.876 164.48 166.447 162.777 168.9 162.777C171.353 162.777 172.892 164.441 172.892 166.973V167.676H167.126C167.15 169.012 167.876 169.793 169.04 169.793C169.978 169.793 170.548 169.277 170.712 168.809L170.728 168.762H172.822L172.798 168.848C172.54 170.082 171.384 171.496 168.993 171.496ZM168.939 164.48C168.001 164.48 167.298 165.105 167.15 166.238H170.704C170.564 165.082 169.884 164.48 168.939 164.48ZM177.4 171.496C175.54 171.496 174.665 170.777 174.665 168.98V164.668H173.501V162.949H174.665V160.902H176.97V162.949H178.501V164.668H176.97V168.73C176.97 169.512 177.322 169.777 178.009 169.777C178.212 169.777 178.361 169.754 178.501 169.738V171.41C178.243 171.449 177.876 171.496 177.4 171.496ZM180.947 165.895C180.236 165.895 179.681 165.34 179.681 164.629C179.681 163.926 180.236 163.363 180.947 163.363C181.65 163.363 182.212 163.926 182.212 164.629C182.212 165.34 181.65 165.895 180.947 165.895ZM180.947 171.457C180.236 171.457 179.681 170.895 179.681 170.191C179.681 169.48 180.236 168.926 180.947 168.926C181.65 168.926 182.212 169.48 182.212 170.191C182.212 170.895 181.65 171.457 180.947 171.457Z" fill="white"/>
<path opacity="0.95" d="M46.5428 205.832H34.129C30.4116 205.832 27.4006 202.821 27.4006 199.104V160.988C27.4006 157.27 30.4116 154.259 34.129 154.259H46.5428C50.2602 154.259 53.2712 157.27 53.2712 160.988V199.104C53.2712 202.821 50.2602 205.832 46.5428 205.832Z" fill="#F75146"/>
<path opacity="0.85" d="M27.4006 158.571V166.566C27.4006 168.748 29.7443 170.519 32.6375 170.519H47.5184C50.6751 170.519 53.2319 172.448 53.2319 174.831V175.728C53.2319 178.111 55.7887 180.04 58.9454 180.04H74.3085C77.4652 180.04 78.9511 176.496 78.9511 174.113V159.289C78.9511 156.906 76.3943 154.259 73.2376 154.259H33.1197C29.963 154.259 27.4006 156.188 27.4006 158.571Z" fill="#F75146"/>
<path opacity="0.5" d="M27.4121 173.766V160.001C27.4121 156.827 29.3353 154.259 31.707 154.259H44.5021C45.9263 154.259 47.2552 155.201 48.0513 156.771L58.3513 176.995C59.1531 178.565 60.5605 180.046 61.9846 180.046H74.7461C77.1178 180.046 78.9569 182.619 78.9569 185.787V200.085C78.9569 203.258 77.0337 205.826 74.662 205.826H61.8725C60.4147 205.826 59.0578 204.84 58.2672 203.208L48.0457 182.126C47.2552 180.494 45.9768 180.046 44.5246 180.046H31.7911C29.4194 180.046 27.4121 176.934 27.4121 173.766Z" fill="#180D7D"/>
<path opacity="0.25" d="M78.9623 173.766V159.468C78.9623 156.294 75.7831 154.259 73.4114 154.259H61.8723C60.4481 154.259 59.1193 155.201 58.3231 156.771L48.0231 176.995C47.2213 178.565 45.8924 180.046 44.4739 180.046H31.7124C29.3407 180.046 27.4175 182.081 27.4175 185.254V200.09C27.4175 203.264 29.3407 205.832 31.7124 205.832H44.5019C45.9597 205.832 47.3166 204.845 48.1072 203.214L58.3343 182.126C59.1193 180.494 60.4761 180.046 61.9339 180.046H74.6674C77.0391 180.046 78.9623 176.934 78.9623 173.766Z" fill="#180D7D"/>
<defs>
<linearGradient id="paint0_linear_1257_153" x1="238.455" y1="0.866516" x2="238.455" y2="512.807" gradientUnits="userSpaceOnUse">
<stop stop-color="white" stop-opacity="0.14"/>
<stop offset="1" stop-color="white" stop-opacity="0"/>
</linearGradient>
<linearGradient id="paint1_linear_1257_153" x1="238.455" y1="0.866516" x2="238.455" y2="512.807" gradientUnits="userSpaceOnUse">
<stop stop-color="#C9C9C9" stop-opacity="0.09"/>
<stop offset="0.6" stop-color="#C9C9C9" stop-opacity="0"/>
</linearGradient>
<linearGradient id="paint2_linear_1257_153" x1="-169.305" y1="-25.1571" x2="-117.407" y2="209.875" gradientUnits="userSpaceOnUse">
<stop stop-color="#332C3B"/>
<stop offset="0.5" stop-color="#14121A"/>
<stop offset="1" stop-color="#1F1926"/>
</linearGradient>
<linearGradient id="paint3_linear_1257_153" x1="238.455" y1="36.2148" x2="238.455" y2="100.817" gradientUnits="userSpaceOnUse">
<stop stop-color="#1D1414" stop-opacity="0.35"/>
<stop offset="1" stop-color="#242424" stop-opacity="0.3"/>
</linearGradient>
<radialGradient id="paint4_angular_1257_153" cx="0" cy="0" r="1" gradientUnits="userSpaceOnUse" gradientTransform="translate(238.455 68.5158) rotate(-11.0594) scale(135.195 34.169)">
<stop stop-color="#5D2478"/>
<stop offset="0.805" stop-color="#3E006E"/>
</radialGradient>
<linearGradient id="paint5_linear_1257_153" x1="-283.34" y1="5.0108" x2="-216.595" y2="306.487" gradientUnits="userSpaceOnUse">
<stop stop-color="#332C3B"/>
<stop offset="0.5" stop-color="#14121A"/>
<stop offset="1" stop-color="#1F1926"/>
</linearGradient>
<linearGradient id="paint6_linear_1257_153" x1="238.455" y1="83.7521" x2="238.455" y2="166.638" gradientUnits="userSpaceOnUse">
<stop stop-color="#1D1414" stop-opacity="0.35"/>
<stop offset="1" stop-color="#242424" stop-opacity="0.3"/>
</linearGradient>
<radialGradient id="paint7_angular_1257_153" cx="0" cy="0" r="1" gradientUnits="userSpaceOnUse" gradientTransform="translate(238.455 125.195) rotate(-11.0877) scale(173.02 43.8352)">
<stop stop-color="#5D2478"/>
<stop offset="0.805" stop-color="#3E006E"/>
</radialGradient>
<linearGradient id="paint8_linear_1257_153" x1="-435.386" y1="48.0381" x2="-373.338" y2="380.62" gradientUnits="userSpaceOnUse">
<stop stop-color="#332C3B"/>
<stop offset="0.5" stop-color="#14121A"/>
<stop offset="1" stop-color="#1F1926"/>
</linearGradient>
<linearGradient id="paint9_linear_1257_153" x1="238.455" y1="133.727" x2="238.455" y2="223.926" gradientUnits="userSpaceOnUse">
<stop stop-color="#1D1414" stop-opacity="0.35"/>
<stop offset="1" stop-color="#242424" stop-opacity="0.3"/>
</linearGradient>
<radialGradient id="paint10_angular_1257_153" cx="0" cy="0" r="1" gradientUnits="userSpaceOnUse" gradientTransform="translate(238.455 178.827) rotate(-9.37723) scale(222.236 47.9608)">
<stop stop-color="#5D2478"/>
<stop offset="0.805" stop-color="#3E006E"/>
</radialGradient>
</defs>
</svg>
