<svg width="200" height="57" viewBox="0 0 200 57" fill="none" xmlns="http://www.w3.org/2000/svg">
<path d="M73.907 29.2034C73.907 27.9865 74.1223 26.7885 74.5528 25.6091C74.9834 24.411 75.6012 23.344 76.4061 22.408C77.2298 21.4719 78.2313 20.7138 79.4107 20.1335C80.5901 19.5531 81.9379 19.263 83.4542 19.263C85.2327 19.263 86.7677 19.6655 88.0594 20.4704C89.3698 21.2754 90.3339 22.3237 90.9517 23.6154L87.9752 25.6653C87.7505 25.1036 87.4603 24.6356 87.1047 24.2612C86.749 23.8681 86.3559 23.5592 85.9253 23.3346C85.5135 23.11 85.0829 22.9508 84.6336 22.8572C84.1843 22.7449 83.7538 22.6888 83.3419 22.6888C82.4246 22.6888 81.6197 22.8853 80.927 23.2784C80.2344 23.6716 79.6541 24.1864 79.1861 24.8228C78.7368 25.4406 78.3905 26.152 78.1471 26.9569C77.9224 27.7432 77.8101 28.5294 77.8101 29.3157C77.8101 30.1955 77.9412 31.0473 78.2032 31.871C78.4841 32.6759 78.8678 33.3873 79.3545 34.0051C79.86 34.6228 80.459 35.1189 81.1517 35.4933C81.8443 35.8677 82.6025 36.0549 83.4262 36.0549C83.8567 36.0549 84.2966 35.9988 84.7459 35.8864C85.1952 35.7741 85.6258 35.5963 86.0376 35.3529C86.4682 35.1096 86.8613 34.8007 87.217 34.4263C87.5727 34.0331 87.8628 33.5651 88.0875 33.0223L91.2605 34.8475C90.961 35.5963 90.5211 36.2608 89.9408 36.8412C89.3792 37.4028 88.7333 37.8801 88.0032 38.2733C87.2731 38.6664 86.5056 38.9659 85.7007 39.1718C84.8957 39.3777 84.1001 39.4807 83.3138 39.4807C81.9286 39.4807 80.6556 39.1812 79.4949 38.5821C78.353 37.9831 77.3608 37.2062 76.5184 36.2515C75.6948 35.278 75.0489 34.1829 74.5809 32.9661C74.1316 31.7306 73.907 30.4763 73.907 29.2034Z" fill="white"/>
<path d="M97.5483 39.593C96.8369 39.593 96.1724 39.4807 95.5546 39.2561C94.9368 39.0127 94.4033 38.6851 93.954 38.2733C93.5048 37.8427 93.1491 37.3466 92.887 36.785C92.6436 36.2234 92.5219 35.6056 92.5219 34.9317C92.5219 34.2391 92.6717 33.6026 92.9712 33.0223C93.2895 32.4232 93.72 31.9178 94.2629 31.5059C94.8245 31.0941 95.4891 30.7758 96.2566 30.5512C97.0241 30.3078 97.8665 30.1862 98.7838 30.1862C99.439 30.1862 100.076 30.2423 100.693 30.3546C101.33 30.467 101.891 30.6261 102.378 30.832V29.9896C102.378 29.0162 102.097 28.2673 101.536 27.7432C100.993 27.219 100.178 26.9569 99.0927 26.9569C98.3065 26.9569 97.5389 27.0973 96.7901 27.3781C96.0413 27.6589 95.2738 28.0708 94.4876 28.6137L93.3363 26.2269C95.227 24.9726 97.2675 24.3455 99.4578 24.3455C101.573 24.3455 103.211 24.8696 104.372 25.918C105.551 26.9476 106.141 28.4452 106.141 30.4108V34.9879C106.141 35.381 106.216 35.6618 106.365 35.8303C106.515 35.9988 106.777 36.0924 107.152 36.1111V39.3122C106.796 39.3871 106.459 39.4339 106.141 39.4526C105.841 39.4901 105.579 39.5088 105.355 39.5088C104.643 39.4901 104.1 39.3309 103.726 39.0314C103.352 38.7132 103.118 38.292 103.024 37.7678L102.94 36.9535C102.284 37.8146 101.489 38.4698 100.553 38.9191C99.6169 39.3684 98.6153 39.593 97.5483 39.593ZM98.6153 36.8412C99.2518 36.8412 99.8509 36.7288 100.412 36.5042C100.993 36.2796 101.442 35.98 101.76 35.6056C102.172 35.2874 102.378 34.9317 102.378 34.5386V32.8538C101.929 32.6853 101.442 32.5543 100.918 32.4607C100.394 32.3483 99.8883 32.2922 99.4016 32.2922C98.4281 32.2922 97.6325 32.5168 97.0148 32.9661C96.397 33.3967 96.0881 33.9489 96.0881 34.6228C96.0881 35.2593 96.3315 35.7928 96.8182 36.2234C97.3049 36.6352 97.904 36.8412 98.6153 36.8412Z" fill="white"/>
<path d="M109.711 18.8137H113.473V34.4263C113.473 35.5682 113.988 36.1392 115.018 36.1392C115.224 36.1392 115.458 36.1017 115.72 36.0268C116 35.952 116.263 35.8677 116.506 35.7741L117.011 38.7787C116.506 39.0221 115.916 39.2093 115.242 39.3403C114.568 39.4713 113.96 39.5369 113.417 39.5369C112.238 39.5369 111.32 39.228 110.665 38.6102C110.029 37.9737 109.711 37.0752 109.711 35.9145V18.8137Z" fill="white"/>
<path d="M118.623 18.8137H122.385V34.4263C122.385 35.5682 122.9 36.1392 123.93 36.1392C124.136 36.1392 124.37 36.1017 124.632 36.0268C124.913 35.952 125.175 35.8677 125.418 35.7741L125.924 38.7787C125.418 39.0221 124.828 39.2093 124.154 39.3403C123.481 39.4713 122.872 39.5369 122.329 39.5369C121.15 39.5369 120.233 39.228 119.577 38.6102C118.941 37.9737 118.623 37.0752 118.623 35.9145V18.8137Z" fill="white"/>
<path d="M137.639 39.593C136.928 39.593 136.263 39.4807 135.646 39.2561C135.028 39.0127 134.494 38.6851 134.045 38.2733C133.596 37.8427 133.24 37.3466 132.978 36.785C132.735 36.2234 132.613 35.6056 132.613 34.9317C132.613 34.2391 132.763 33.6026 133.062 33.0223C133.381 32.4232 133.811 31.9178 134.354 31.5059C134.916 31.0941 135.58 30.7758 136.348 30.5512C137.115 30.3078 137.958 30.1862 138.875 30.1862C139.53 30.1862 140.167 30.2423 140.784 30.3546C141.421 30.467 141.982 30.6261 142.469 30.832V29.9896C142.469 29.0162 142.188 28.2673 141.627 27.7432C141.084 27.219 140.27 26.9569 139.184 26.9569C138.398 26.9569 137.63 27.0973 136.881 27.3781C136.132 27.6589 135.365 28.0708 134.579 28.6137L133.427 26.2269C135.318 24.9726 137.359 24.3455 139.549 24.3455C141.664 24.3455 143.302 24.8696 144.463 25.918C145.642 26.9476 146.232 28.4452 146.232 30.4108V34.9879C146.232 35.381 146.307 35.6618 146.457 35.8303C146.606 35.9988 146.868 36.0924 147.243 36.1111V39.3122C146.887 39.3871 146.55 39.4339 146.232 39.4526C145.932 39.4901 145.67 39.5088 145.446 39.5088C144.734 39.4901 144.191 39.3309 143.817 39.0314C143.443 38.7132 143.209 38.292 143.115 37.7678L143.031 36.9535C142.376 37.8146 141.58 38.4698 140.644 38.9191C139.708 39.3684 138.706 39.593 137.639 39.593ZM138.706 36.8412C139.343 36.8412 139.942 36.7288 140.504 36.5042C141.084 36.2796 141.533 35.98 141.851 35.6056C142.263 35.2874 142.469 34.9317 142.469 34.5386V32.8538C142.02 32.6853 141.533 32.5543 141.009 32.4607C140.485 32.3483 139.979 32.2922 139.493 32.2922C138.519 32.2922 137.724 32.5168 137.106 32.9661C136.488 33.3967 136.179 33.9489 136.179 34.6228C136.179 35.2593 136.423 35.7928 136.909 36.2234C137.396 36.6352 137.995 36.8412 138.706 36.8412Z" fill="white"/>
<path d="M157.948 19.3753L163.339 34.4543L168.674 19.3753H172.746L164.968 39.3122H161.71L153.876 19.3753H157.948Z" fill="white"/>
<path d="M181.306 39.593C180.127 39.593 179.06 39.3965 178.105 39.0033C177.15 38.5915 176.336 38.0393 175.662 37.3466C174.988 36.654 174.464 35.849 174.09 34.9317C173.734 34.0144 173.556 33.0503 173.556 32.0395C173.556 30.9911 173.734 30.0083 174.09 29.091C174.445 28.155 174.96 27.3407 175.634 26.6481C176.308 25.9367 177.122 25.3751 178.077 24.9632C179.05 24.5514 180.136 24.3455 181.334 24.3455C182.532 24.3455 183.599 24.5514 184.535 24.9632C185.49 25.3751 186.295 25.9273 186.95 26.62C187.624 27.3126 188.13 28.1176 188.467 29.0349C188.822 29.9522 189 30.9069 189 31.8991C189 32.1424 188.991 32.3764 188.972 32.6011C188.972 32.8257 188.953 33.0129 188.916 33.1627H177.543C177.6 33.743 177.74 34.2578 177.965 34.7071C178.189 35.1564 178.479 35.5401 178.835 35.8584C179.191 36.1766 179.593 36.42 180.043 36.5884C180.492 36.7569 180.96 36.8412 181.447 36.8412C182.195 36.8412 182.897 36.6633 183.553 36.3076C184.227 35.9332 184.685 35.4465 184.929 34.8475L188.158 35.746C187.615 36.8692 186.744 37.7959 185.546 38.526C184.367 39.2373 182.954 39.593 181.306 39.593ZM185.125 30.7197C185.032 29.6152 184.62 28.7354 183.89 28.0801C183.178 27.4062 182.308 27.0693 181.278 27.0693C180.773 27.0693 180.295 27.1629 179.846 27.3501C179.415 27.5185 179.032 27.7619 178.695 28.0801C178.358 28.3984 178.077 28.7822 177.852 29.2314C177.646 29.6807 177.525 30.1768 177.487 30.7197H185.125Z" fill="white"/>
<path d="M200 38.5541C199.494 38.7787 198.867 39.0033 198.119 39.228C197.388 39.4526 196.621 39.5649 195.816 39.5649C195.292 39.5649 194.796 39.4994 194.328 39.3684C193.878 39.2373 193.476 39.0314 193.12 38.7506C192.783 38.4511 192.512 38.0767 192.306 37.6274C192.1 37.1594 191.997 36.5978 191.997 35.9426V27.4905H190.088V24.5982H191.997V19.8246H195.76V24.5982H198.877V27.4905H195.76V34.679C195.76 35.2032 195.9 35.5776 196.181 35.8022C196.462 36.0081 196.799 36.1111 197.192 36.1111C197.585 36.1111 197.969 36.0456 198.343 35.9145C198.718 35.7835 199.017 35.6712 199.242 35.5776L200 38.5541Z" fill="white"/>
<path opacity="0.95" d="M21.4307 53.9083H8.99681C5.27338 53.9083 2.25757 50.8925 2.25757 47.1691V8.99129C2.25757 5.26786 5.27338 2.25204 8.99681 2.25204H21.4307C25.1541 2.25204 28.17 5.26786 28.17 8.99129V47.1691C28.17 50.8925 25.1541 53.9083 21.4307 53.9083Z" fill="#F75146"/>
<path opacity="0.85" d="M2.25757 6.57078V14.5792C2.25757 16.7639 4.60507 18.5385 7.50295 18.5385H22.4079C25.5697 18.5385 28.1306 20.4705 28.1306 22.8573V23.7558C28.1306 26.1427 30.6916 28.0746 33.8534 28.0746H49.2413C52.4032 28.0746 53.8914 24.5252 53.8914 22.1384V7.28963C53.8914 4.90281 51.3305 2.25204 48.1687 2.25204H7.98592C4.8241 2.25204 2.25757 4.18396 2.25757 6.57078Z" fill="#F75146"/>
<path opacity="0.5" d="M2.26904 21.7902V8.00286C2.26904 4.82419 4.19534 2.25204 6.57093 2.25204H19.3867C20.8132 2.25204 22.1442 3.19554 22.9417 4.76803L33.2583 25.0251C34.0614 26.5976 35.471 28.0802 36.8975 28.0802H49.6796C52.0552 28.0802 53.8973 30.658 53.8973 33.831V48.1519C53.8973 51.3306 51.971 53.9027 49.5954 53.9027H36.7852C35.325 53.9027 33.9659 52.9143 33.1741 51.28L22.9361 30.1637C22.1442 28.5295 20.8637 28.0802 19.4092 28.0802H6.65517C4.27958 28.0802 2.26904 24.9633 2.26904 21.7902Z" fill="#180D7D"/>
<path opacity="0.25" d="M53.9026 21.7902V7.46934C53.9026 4.29067 50.7183 2.25204 48.3428 2.25204H36.785C35.3585 2.25204 34.0275 3.19554 33.23 4.76803L22.9133 25.0251C22.1103 26.5976 20.7793 28.0802 19.3584 28.0802H6.5763C4.20071 28.0802 2.27441 30.1188 2.27441 33.2975V48.1575C2.27441 51.3362 4.20071 53.9083 6.5763 53.9083H19.3865C20.8466 53.9083 22.2057 52.9199 22.9976 51.2856L33.2412 30.1637C34.0275 28.5295 35.3866 28.0802 36.8467 28.0802H49.6007C51.9763 28.0802 53.9026 24.9633 53.9026 21.7902Z" fill="#180D7D"/>
</svg>
